<mxfile host="app.diagrams.net" modified="2022-10-30T19:44:16.060Z" agent="5.0 (Macintosh; Intel Mac OS X 10_15_7) AppleWebKit/537.36 (KHTML, like Gecko) Chrome/105.0.0.0 Safari/537.36" etag="eHSV_8a50hQlWomsS_Q4" version="20.5.1" type="github">
  <diagram id="wLAMierAkz9ZId6r5t4T" name="Page-1">
    <mxGraphModel dx="659" dy="527" grid="1" gridSize="10" guides="1" tooltips="1" connect="1" arrows="1" fold="1" page="1" pageScale="1" pageWidth="850" pageHeight="1100" math="0" shadow="0">
      <root>
        <mxCell id="0" />
        <mxCell id="1" parent="0" />
        <mxCell id="r0d0HkhttF-L8Bv9bcKK-2" value="" style="rounded=1;whiteSpace=wrap;html=1;fillColor=#F2F8FC;strokeColor=#6c8ebf;arcSize=8;" vertex="1" parent="1">
          <mxGeometry x="110" y="120" width="480" height="350" as="geometry" />
        </mxCell>
        <mxCell id="r0d0HkhttF-L8Bv9bcKK-4" value="to" style="text;html=1;strokeColor=none;fillColor=none;align=center;verticalAlign=middle;whiteSpace=wrap;rounded=0;fontSize=17;fontFamily=Georgia;" vertex="1" parent="1">
          <mxGeometry x="130" y="230" width="35" height="30" as="geometry" />
        </mxCell>
        <mxCell id="r0d0HkhttF-L8Bv9bcKK-5" value="of 12:28" style="text;html=1;strokeColor=none;fillColor=none;align=center;verticalAlign=middle;whiteSpace=wrap;rounded=0;fontFamily=Georgia;fontSize=17;" vertex="1" parent="1">
          <mxGeometry x="500" y="185" width="90" height="30" as="geometry" />
        </mxCell>
        <mxCell id="r0d0HkhttF-L8Bv9bcKK-6" value="Give 6 minutes and 40 seconds" style="text;strokeColor=none;fillColor=none;html=1;fontSize=24;fontStyle=1;verticalAlign=middle;align=center;fontFamily=Georgia;" vertex="1" parent="1">
          <mxGeometry x="165" y="140" width="380" height="40" as="geometry" />
        </mxCell>
        <mxCell id="r0d0HkhttF-L8Bv9bcKK-8" value="&lt;font style=&quot;font-size: 19px;&quot; face=&quot;Georgia&quot;&gt;Steve Vitka&lt;/font&gt;" style="html=1;whiteSpace=wrap;container=1;recursiveResize=0;collapsible=0;align=left;spacingLeft=20;" vertex="1" parent="1">
          <mxGeometry x="180" y="230" width="390" height="30" as="geometry" />
        </mxCell>
        <mxCell id="r0d0HkhttF-L8Bv9bcKK-9" value="" style="triangle;html=1;whiteSpace=wrap;direction=south;rotation=0;" vertex="1" parent="r0d0HkhttF-L8Bv9bcKK-8">
          <mxGeometry x="350" y="5" width="30" height="20" as="geometry" />
        </mxCell>
        <mxCell id="r0d0HkhttF-L8Bv9bcKK-21" value="" style="rounded=0;whiteSpace=wrap;html=1;strokeColor=#000000;strokeWidth=1;fontFamily=Georgia;fontSize=17;fontColor=#969696;fillColor=#FFFFFF;" vertex="1" parent="r0d0HkhttF-L8Bv9bcKK-8">
          <mxGeometry x="-56" y="-41" width="372" height="22" as="geometry" />
        </mxCell>
        <mxCell id="r0d0HkhttF-L8Bv9bcKK-10" value="" style="rounded=1;whiteSpace=wrap;html=1;fontFamily=Georgia;fontSize=17;arcSize=10;" vertex="1" parent="1">
          <mxGeometry x="130" y="280" width="440" height="110" as="geometry" />
        </mxCell>
        <mxCell id="r0d0HkhttF-L8Bv9bcKK-12" value="" style="rounded=1;whiteSpace=wrap;html=1;fontFamily=Georgia;fontSize=17;arcSize=24;" vertex="1" parent="1">
          <mxGeometry x="130" y="410" width="440" height="30" as="geometry" />
        </mxCell>
        <mxCell id="r0d0HkhttF-L8Bv9bcKK-11" value="question" style="text;html=1;align=center;verticalAlign=middle;whiteSpace=wrap;rounded=0;fontFamily=Georgia;fontSize=17;fontColor=#969696;" vertex="1" parent="1">
          <mxGeometry x="140" y="280" width="60" height="30" as="geometry" />
        </mxCell>
        <mxCell id="r0d0HkhttF-L8Bv9bcKK-13" value="URL" style="text;html=1;strokeColor=none;fillColor=none;align=center;verticalAlign=middle;whiteSpace=wrap;rounded=0;fontSize=17;fontFamily=Georgia;fontColor=#969696;" vertex="1" parent="1">
          <mxGeometry x="140" y="410" width="35" height="30" as="geometry" />
        </mxCell>
        <mxCell id="r0d0HkhttF-L8Bv9bcKK-16" value="" style="rounded=0;whiteSpace=wrap;html=1;strokeColor=#FFFF00;strokeWidth=11;fontFamily=Georgia;fontSize=17;fontColor=#969696;fillColor=#FFFF00;" vertex="1" parent="1">
          <mxGeometry x="130" y="195" width="170" height="10" as="geometry" />
        </mxCell>
        <mxCell id="r0d0HkhttF-L8Bv9bcKK-17" value="" style="rounded=0;whiteSpace=wrap;html=1;strokeColor=#00CC00;strokeWidth=11;fontFamily=Georgia;fontSize=17;fontColor=#969696;fillColor=#FFFF00;" vertex="1" parent="1">
          <mxGeometry x="320" y="195" width="170" height="10" as="geometry" />
        </mxCell>
        <mxCell id="r0d0HkhttF-L8Bv9bcKK-22" value="" style="ellipse;whiteSpace=wrap;html=1;aspect=fixed;strokeColor=#000000;strokeWidth=1;fontFamily=Georgia;fontSize=17;fontColor=#969696;fillColor=#FFFFFF;" vertex="1" parent="1">
          <mxGeometry x="284" y="174" width="52" height="52" as="geometry" />
        </mxCell>
        <mxCell id="r0d0HkhttF-L8Bv9bcKK-18" value="" style="ellipse;whiteSpace=wrap;html=1;aspect=fixed;strokeColor=#00CC00;strokeWidth=11;fontFamily=Georgia;fontSize=17;fontColor=#969696;fillColor=#FFFF00;" vertex="1" parent="1">
          <mxGeometry x="290" y="180" width="40" height="40" as="geometry" />
        </mxCell>
      </root>
    </mxGraphModel>
  </diagram>
</mxfile>
